<svg width="55" height="54" viewBox="0 0 55 54" fill="none" xmlns="http://www.w3.org/2000/svg">
<rect x="0.5" width="54" height="54" rx="27" fill="#F4F5F7"/>
<path d="M17.5 22.5C17.5 21.8359 18.0469 21.25 18.75 21.25H36.25C36.9141 21.25 37.5 21.8359 37.5 22.5V35C37.5 35.7031 38.0469 36.25 38.75 36.25C39.4141 36.25 40 35.7031 40 35V22.5C40 20.4297 38.3203 18.75 36.25 18.75H18.75C16.6797 18.75 15 20.4297 15 22.5V35C15 35.7031 15.5469 36.25 16.25 36.25C16.9141 36.25 17.5 35.7031 17.5 35V22.5ZM21.875 22.5C21.5234 22.5 21.25 22.8125 21.25 23.125V25H19.375C19.0234 25 18.75 25.3125 18.75 25.625C18.75 25.9766 19.0234 26.25 19.375 26.25H21.25V28.75H19.375C19.0234 28.75 18.75 29.0625 18.75 29.375C18.75 29.7266 19.0234 30 19.375 30H21.25V32.5H19.375C19.0234 32.5 18.75 32.8125 18.75 33.125C18.75 33.4766 19.0234 33.75 19.375 33.75H21.25V35.625C21.25 35.9766 21.5234 36.25 21.875 36.25C22.1875 36.25 22.5 35.9766 22.5 35.625V33.75H25V35.625C25 35.9766 25.2734 36.25 25.625 36.25C25.9375 36.25 26.25 35.9766 26.25 35.625V33.75H28.75V35.625C28.75 35.9766 29.0234 36.25 29.375 36.25C29.6875 36.25 30 35.9766 30 35.625V33.75H32.5V35.625C32.5 35.9766 32.7734 36.25 33.125 36.25C33.4375 36.25 33.75 35.9766 33.75 35.625V33.75H35.625C35.9375 33.75 36.25 33.4766 36.25 33.125C36.25 32.8125 35.9375 32.5 35.625 32.5H33.75V30H35.625C35.9375 30 36.25 29.7266 36.25 29.375C36.25 29.0625 35.9375 28.75 35.625 28.75H33.75V26.25H35.625C35.9375 26.25 36.25 25.9766 36.25 25.625C36.25 25.3125 35.9375 25 35.625 25H33.75V23.125C33.75 22.8125 33.4375 22.5 33.125 22.5C32.7734 22.5 32.5 22.8125 32.5 23.125V25H30V23.125C30 22.8125 29.6875 22.5 29.375 22.5C29.0234 22.5 28.75 22.8125 28.75 23.125V25H26.25V23.125C26.25 22.8125 25.9375 22.5 25.625 22.5C25.2734 22.5 25 22.8125 25 23.125V25H22.5V23.125C22.5 22.8125 22.1875 22.5 21.875 22.5ZM25 32.5H22.5V30H25V32.5ZM28.75 32.5H26.25V30H28.75V32.5ZM32.5 32.5H30V30H32.5V32.5ZM32.5 28.75H30V26.25H32.5V28.75ZM28.75 28.75H26.25V26.25H28.75V28.75ZM25 28.75H22.5V26.25H25V28.75Z" fill="#EE7500"/>
</svg>
