<svg width="55" height="54" viewBox="0 0 55 54" fill="none" xmlns="http://www.w3.org/2000/svg">
<rect x="0.5" width="54" height="54" rx="27" fill="#F4F5F7"/>
<path d="M21.25 20C21.25 18.6328 22.3438 17.5 23.75 17.5H37.5C38.8672 17.5 40 18.6328 40 20V31.25C40 32.6562 38.8672 33.75 37.5 33.75H28.125C27.6953 32.7734 26.9531 31.9141 26.0938 31.25H30V30C30 29.3359 30.5469 28.75 31.25 28.75H33.75C34.4141 28.75 35 29.3359 35 30V31.25H37.5V20H23.75V21.9531C23.0078 21.5234 22.1484 21.25 21.25 21.25V20ZM21.25 30C19.1797 30 17.5 28.3203 17.5 26.25C17.5 24.1797 19.1797 22.5 21.25 22.5C23.3203 22.5 25 24.1797 25 26.25C25 28.3203 23.3203 30 21.25 30ZM20.1953 31.25H22.2656C25.1562 31.25 27.5 33.5938 27.5 36.4844C27.5 37.0312 27.0312 37.5 26.4453 37.5H16.0156C15.4297 37.5 15 37.0703 15 36.4844C15 33.5938 17.3047 31.25 20.1953 31.25Z" fill="#EE7500"/>
</svg>
