<svg width="55" height="54" viewBox="0 0 55 54" fill="none" xmlns="http://www.w3.org/2000/svg">
<rect x="0.5" width="54" height="54" rx="27" fill="#F4F5F7"/>
<path d="M19.375 30.625C19.375 32.0312 20.4688 33.125 21.875 33.125C23.2422 33.125 24.375 32.0312 24.375 30.625C24.375 29.2578 23.2422 28.125 21.875 28.125C20.4688 28.125 19.375 29.2578 19.375 30.625ZM25 19.375C25 18.8281 25.2734 17.9688 25.625 17.5H16.875C15.8203 17.5 15 18.3594 15 19.375V35.625C15 36.6797 15.8203 37.5 16.875 37.5H25.625C25.2734 37.0703 25 36.2109 25 35.625V33.7109C24.2578 34.4141 22.8516 35 21.8359 35C19.4531 35 17.4609 33.0469 17.4609 30.625C17.4609 28.2422 19.4531 26.25 21.8359 26.25C22.8516 26.25 24.2578 26.875 25 27.5781V19.375ZM21.875 23.75C20.8203 23.75 20 22.9297 20 21.875C20 20.8594 20.8203 20 21.875 20C22.8906 20 23.75 20.8594 23.75 21.875C23.75 22.9297 22.8906 23.75 21.875 23.75ZM38.125 17.5H28.125C27.0703 17.5 26.25 18.3594 26.25 19.375V35.625C26.25 36.6797 27.0703 37.5 28.125 37.5H38.125C39.1406 37.5 40 36.6797 40 35.625V19.375C40 18.3594 39.1406 17.5 38.125 17.5ZM33.125 20C34.1406 20 35 20.8594 35 21.875C35 22.9297 34.1406 23.75 33.125 23.75C32.0703 23.75 31.25 22.9297 31.25 21.875C31.25 20.8594 32.0703 20 33.125 20ZM33.125 35C30.7031 35 28.75 33.0469 28.75 30.625C28.75 28.2422 30.7031 26.25 33.125 26.25C35.5078 26.25 37.5 28.2422 37.5 30.625C37.5 33.0469 35.5078 35 33.125 35ZM33.125 28.125C31.7188 28.125 30.625 29.2578 30.625 30.625C30.625 32.0312 31.7188 33.125 33.125 33.125C34.4922 33.125 35.625 32.0312 35.625 30.625C35.625 29.2578 34.4922 28.125 33.125 28.125Z" fill="#EE7500"/>
</svg>
