<svg width="55" height="54" viewBox="0 0 55 54" fill="none" xmlns="http://www.w3.org/2000/svg">
<rect x="0.5" width="54" height="54" rx="27" fill="#F4F5F7"/>
<path d="M17.25 17.5C16.5469 17.5 16 18.0859 16 18.75C16 19.4531 16.5469 20 17.25 20V28.75C17.25 30.1562 18.3438 31.25 19.75 31.25H26V32.6172L23.2266 35.3906C22.7188 35.8594 22.7188 36.6797 23.2266 37.1484C23.6953 37.6562 24.5156 37.6562 24.9844 37.1484L27.25 34.9219L29.4766 37.1484C29.9453 37.6562 30.7656 37.6562 31.2344 37.1484C31.7422 36.6797 31.7422 35.8594 31.2344 35.3906L28.5 32.6172V31.25H34.75C36.1172 31.25 37.25 30.1562 37.25 28.75V20C37.9141 20 38.5 19.4531 38.5 18.75C38.5 18.0859 37.9141 17.5 37.25 17.5H36H18.5H17.25ZM19.75 20H34.75V28.75H27.25H19.75V20Z" fill="#EE7500"/>
</svg>
