<svg width="54" height="54" viewBox="0 0 54 54" fill="none" xmlns="http://www.w3.org/2000/svg">
<rect width="54" height="54" rx="27" fill="#F4F5F7"/>
<path d="M38.1719 21.875C38.2109 21.6797 38.25 21.4844 38.25 21.25C38.25 19.1797 36.5703 17.5 34.5 17.5C32.3906 17.5 30.75 19.1797 30.75 21.25C30.75 21.4844 30.75 21.6797 30.7891 21.875C30.0078 22.4219 29.5 23.3594 29.5 24.375C29.5 26.1328 30.8672 27.5 32.625 27.5H33.25V36.25C33.25 36.9531 33.7969 37.5 34.5 37.5C35.1641 37.5 35.75 36.9531 35.75 36.25V27.5H36.375C38.0938 27.5 39.5 26.1328 39.5 24.375C39.5 23.3594 38.9531 22.4219 38.1719 21.875ZM28.5625 31.25H27V30H28.25V26.25C28.25 25.5859 27.6641 25 27 25H17C16.2969 25 15.75 25.5859 15.75 26.25V30H17V31.25H15.4375C14.8906 31.25 14.5 31.6797 14.5 32.1875V32.8125C14.5 33.3594 14.8906 33.75 15.4375 33.75H15.75V36.25C15.75 36.9531 16.2969 37.5 17 37.5C17.6641 37.5 18.25 36.9531 18.25 36.25V33.75H25.75V36.25C25.75 36.9531 26.2969 37.5 27 37.5C27.6641 37.5 28.25 36.9531 28.25 36.25V33.75H28.5625C29.0703 33.75 29.5 33.3594 29.5 32.8125V32.1875C29.5 31.6797 29.0703 31.25 28.5625 31.25ZM25.75 31.25H18.25V30H25.75V31.25Z" fill="#EE7500"/>
</svg>
