<svg width="55" height="54" viewBox="0 0 55 54" fill="none" xmlns="http://www.w3.org/2000/svg">
<rect x="0.5" width="54" height="54" rx="27" fill="#F4F5F7"/>
<path d="M33.7891 31.6016L30.9766 31.4062C30.7812 31.3672 30.5859 31.4453 30.4297 31.5625C30.2734 31.6797 30.1562 31.8359 30.0781 32.0312L29.4141 34.7656C28.7891 34.9219 28.1641 35 27.5 35C26.8359 35 26.1719 34.9219 25.5469 34.7656L24.8828 32.0312C24.8047 31.8359 24.6875 31.6797 24.5312 31.5625C24.375 31.4453 24.1797 31.3672 23.9844 31.4062L21.1719 31.6016C20.5078 30.5078 20.0781 29.2578 20 27.9297L22.3828 26.4453C22.5391 26.3281 22.6562 26.1719 22.7344 25.9766C22.7734 25.7812 22.7734 25.5859 22.6953 25.3906L21.6797 22.7734C22.5 21.7969 23.5547 20.9766 24.7656 20.5078L26.9141 22.3047C27.0703 22.4609 27.2656 22.5 27.5 22.5C27.6953 22.5 27.8906 22.4609 28.0469 22.3047L30.1953 20.5078C31.4062 20.9766 32.5 21.7969 33.2812 22.7734L32.2656 25.3906C32.1875 25.5859 32.1875 25.7812 32.2266 25.9766C32.3047 26.1719 32.4219 26.3281 32.5781 26.4453L34.9609 27.9297C34.8828 29.2578 34.4531 30.5078 33.7891 31.6016ZM27.5 37.5C33.0078 37.5 37.5 33.0469 37.5 27.5C37.5 21.9922 33.0078 17.5 27.5 17.5C21.9531 17.5 17.5 21.9922 17.5 27.5C17.5 33.0469 21.9531 37.5 27.5 37.5ZM28.0469 24.8047C27.6953 24.5703 27.2656 24.5703 26.9141 24.8047L25.0781 26.1328C24.7266 26.4062 24.6094 26.7969 24.7266 27.1875L25.4297 29.4141C25.5469 29.7656 25.9375 30.0391 26.3281 30.0391H28.6328C29.0625 30.0391 29.4141 29.7656 29.5312 29.4141L30.2344 27.1875C30.3516 26.7969 30.2344 26.4062 29.9219 26.1328L28.0469 24.8047Z" fill="#EE7500"/>
</svg>
