<svg width="54" height="54" viewBox="0 0 54 54" fill="none" xmlns="http://www.w3.org/2000/svg">
<rect width="54" height="54" rx="27" fill="#F4F5F7"/>
<path d="M34.5 18.75H19.1875C18.6406 18.75 18.25 19.1797 18.25 19.6875V28.75C18.25 30.8203 19.9297 32.5 22 32.5H29.5C31.5703 32.5 33.25 30.8203 33.25 28.75H34.5C37.2344 28.75 39.5 26.5234 39.5 23.75C39.5 21.0156 37.2344 18.75 34.5 18.75ZM34.5 26.25H33.25V21.25H34.5C35.8672 21.25 37 22.3828 37 23.75C37 25.1562 35.8672 26.25 34.5 26.25ZM36.375 33.75H15.125C14.7734 33.75 14.5 34.0625 14.5 34.375C14.5 35.4297 15.3203 36.25 16.375 36.25H35.125C36.1406 36.25 37 35.4297 37 34.375C37 34.0625 36.6875 33.75 36.375 33.75Z" fill="#EE7500"/>
</svg>
