<svg width="54" height="54" viewBox="0 0 54 54" fill="none" xmlns="http://www.w3.org/2000/svg">
<rect width="54" height="54" rx="27" fill="#F4F5F7"/>
<path d="M34.5 17.5C35.8672 17.5 37 18.6328 37 20V35C37 36.4062 35.8672 37.5 34.5 37.5H19.5C18.0938 37.5 17 36.4062 17 35V25C17 23.6328 18.0938 22.5 19.5 22.5H24.5V20C24.5 18.6328 25.5938 17.5 27 17.5H34.5ZM19.5 30.625C19.5 30.9766 19.7734 31.25 20.125 31.25H21.375C21.6875 31.25 22 30.9766 22 30.625V29.375C22 29.0625 21.6875 28.75 21.375 28.75H20.125C19.7734 28.75 19.5 29.0625 19.5 29.375V30.625ZM28.875 30C29.1875 30 29.5 29.7266 29.5 29.375V28.125C29.5 27.8125 29.1875 27.5 28.875 27.5H27.625C27.2734 27.5 27 27.8125 27 28.125V29.375C27 29.7266 27.2734 30 27.625 30H28.875ZM32 29.375C32 29.7266 32.2734 30 32.625 30H33.875C34.1875 30 34.5 29.7266 34.5 29.375V28.125C34.5 27.8125 34.1875 27.5 33.875 27.5H32.625C32.2734 27.5 32 27.8125 32 28.125V29.375ZM20.125 25C19.7734 25 19.5 25.3125 19.5 25.625V26.875C19.5 27.2266 19.7734 27.5 20.125 27.5H21.375C21.6875 27.5 22 27.2266 22 26.875V25.625C22 25.3125 21.6875 25 21.375 25H20.125ZM27 21.875C27 22.2266 27.2734 22.5 27.625 22.5H28.875C29.1875 22.5 29.5 22.2266 29.5 21.875V20.625C29.5 20.3125 29.1875 20 28.875 20H27.625C27.2734 20 27 20.3125 27 20.625V21.875ZM32.625 20C32.2734 20 32 20.3125 32 20.625V21.875C32 22.2266 32.2734 22.5 32.625 22.5H33.875C34.1875 22.5 34.5 22.2266 34.5 21.875V20.625C34.5 20.3125 34.1875 20 33.875 20H32.625ZM27 25.625C27 25.9766 27.2734 26.25 27.625 26.25H28.875C29.1875 26.25 29.5 25.9766 29.5 25.625V24.375C29.5 24.0625 29.1875 23.75 28.875 23.75H27.625C27.2734 23.75 27 24.0625 27 24.375V25.625ZM33.875 26.25C34.1875 26.25 34.5 25.9766 34.5 25.625V24.375C34.5 24.0625 34.1875 23.75 33.875 23.75H32.625C32.2734 23.75 32 24.0625 32 24.375V25.625C32 25.9766 32.2734 26.25 32.625 26.25H33.875Z" fill="#EE7500"/>
</svg>
