<svg width="207" height="33" viewBox="0 0 207 33" fill="none" xmlns="http://www.w3.org/2000/svg">
<g clip-path="url(#clip0_4_316)">
<path d="M47.6401 29.1971C46.8573 29.1971 46.2231 28.5627 46.2231 27.7797V13.3659C46.2231 12.5828 46.8573 11.9484 47.6401 11.9484C48.4228 11.9484 49.0571 12.5828 49.0571 13.3659V27.7777C49.0571 28.5607 48.4228 29.1951 47.6401 29.1951" fill="#1F4183"/>
<path d="M3.16919 12.1612C3.16919 12.9503 2.53094 13.5887 1.74216 13.5887C0.953376 13.5887 0.315125 12.9503 0.315125 12.1612C0.315125 11.3722 0.953376 10.7337 1.74216 10.7337C2.53094 10.7337 3.16919 11.3722 3.16919 12.1612Z" fill="#F47721"/>
<path d="M39.7683 12.1612C39.7683 12.9503 39.1301 13.5887 38.3413 13.5887C37.5525 13.5887 36.9142 12.9503 36.9142 12.1612C36.9142 11.3722 37.5525 10.7337 38.3413 10.7337C39.1301 10.7337 39.7683 11.3722 39.7683 12.1612Z" fill="#F47721"/>
<path d="M67.7249 3.59203H62.7092V2.41749C62.7092 1.63446 62.075 1 61.2922 1C60.5095 1 59.8752 1.63446 59.8752 2.41749V3.59203H54.8977C54.1149 3.59203 53.4807 4.22649 53.4807 5.00952C53.4807 5.79255 54.1149 6.42701 54.8977 6.42701H56.5936C56.1922 7.17792 55.9654 8.03323 55.9654 8.94074C55.9654 11.8902 58.3639 14.2894 61.3123 14.2894C64.2607 14.2894 66.6591 11.8902 66.6591 8.94074C66.6591 8.03323 66.4303 7.17792 66.0289 6.42701H67.7249C68.5077 6.42701 69.1419 5.79255 69.1419 5.00952C69.1419 4.22649 68.5077 3.59203 67.7249 3.59203ZM61.3103 11.4565C59.9234 11.4565 58.7974 10.3281 58.7974 8.94275C58.7974 7.55738 59.9254 6.42902 61.3103 6.42902C62.6952 6.42902 63.8231 7.55738 63.8231 8.94275C63.8231 10.3281 62.6952 11.4565 61.3103 11.4565Z" fill="#1F4183"/>
<path d="M44.2501 24.9507C41.7152 22.7883 39.9329 20.0758 39.0939 17.1084C39.0939 17.1023 39.0899 17.0983 39.0879 17.0923C39.1642 17.3453 39.1702 17.6244 39.0879 17.8974C38.7467 19.0499 38.2831 20.1762 37.709 21.2604C38.841 23.4369 40.4306 25.4225 42.4076 27.1091C42.6746 27.3359 43.0017 27.4484 43.3269 27.4484C43.7283 27.4484 44.1257 27.2797 44.4067 26.9505C44.9145 26.3541 44.8442 25.4607 44.2481 24.9527L44.2501 24.9507Z" fill="#1F4183"/>
<path d="M39.0879 17.0923C39.0799 17.0642 39.0698 17.0381 39.0598 17.01C39.0538 16.9919 39.0477 16.9738 39.0397 16.9558C39.0297 16.9317 39.0196 16.9096 39.0096 16.8875C38.9996 16.8674 38.9915 16.8473 38.9815 16.8273C38.9715 16.8072 38.9594 16.7891 38.9494 16.771C38.9374 16.749 38.9253 16.7289 38.9113 16.7068C38.8992 16.6887 38.8872 16.6727 38.8751 16.6566C38.8611 16.6365 38.847 16.6164 38.831 16.5964C38.8169 16.5783 38.8009 16.5602 38.7848 16.5442C38.7708 16.5281 38.7567 16.512 38.7407 16.496C38.7206 16.4759 38.7005 16.4578 38.6804 16.4398C38.6664 16.4277 38.6544 16.4157 38.6423 16.4036C38.6202 16.3856 38.5982 16.3675 38.5741 16.3514C38.56 16.3414 38.546 16.3313 38.5319 16.3213C38.5118 16.3073 38.4898 16.2932 38.4677 16.2812C38.4496 16.2711 38.4316 16.2591 38.4135 16.249C38.3954 16.239 38.3774 16.231 38.3593 16.2229C38.3332 16.2109 38.3091 16.1988 38.283 16.1868C38.271 16.1808 38.257 16.1767 38.2449 16.1727C38.2128 16.1607 38.1787 16.1486 38.1446 16.1386C38.1345 16.1366 38.1265 16.1326 38.1165 16.1306C38.0783 16.1205 38.0422 16.1105 38.0041 16.1025C37.996 16.1025 37.986 16.0984 37.978 16.0984C37.9398 16.0924 37.9037 16.0864 37.8656 16.0824C37.8555 16.0824 37.8455 16.0824 37.8355 16.0804C37.7993 16.0784 37.7632 16.0764 37.7251 16.0764C37.715 16.0764 37.703 16.0764 37.693 16.0764C37.6568 16.0764 37.6227 16.0804 37.5866 16.0824C37.5745 16.0824 37.5625 16.0844 37.5505 16.0864C37.5163 16.0904 37.4822 16.0964 37.4501 16.1025C37.4381 16.1045 37.426 16.1085 37.414 16.1105C37.3799 16.1185 37.3477 16.1266 37.3136 16.1366C37.3036 16.1386 37.2956 16.1426 37.2875 16.1466C37.2514 16.1587 37.2153 16.1707 37.1791 16.1868C37.1771 16.1868 37.1751 16.1888 37.1731 16.1908C37.0085 16.2611 36.858 16.3635 36.7316 16.49C36.7255 16.496 36.7215 16.502 36.7155 16.506C36.6894 16.5321 36.6653 16.5602 36.6413 16.5883C36.6312 16.6004 36.6212 16.6144 36.6111 16.6285C36.5931 16.6506 36.577 16.6727 36.561 16.6968C36.5489 16.7128 36.5389 16.7309 36.5289 16.749C36.5148 16.771 36.5028 16.7911 36.4907 16.8152C36.4807 16.8333 36.4727 16.8514 36.4646 16.8674C36.4526 16.8915 36.4405 16.9156 36.4305 16.9417C36.4245 16.9578 36.4185 16.9738 36.4124 16.9899C36.4024 17.018 36.3904 17.0481 36.3823 17.0782C36.3823 17.0823 36.3783 17.0883 36.3763 17.0923C35.4209 20.3248 33.3135 23.3304 30.4394 25.553C27.3846 27.9142 23.804 29.163 20.0848 29.163C12.7249 29.163 5.70813 23.9769 3.76327 17.1023C3.55052 16.3494 2.76775 15.9117 2.01309 16.1245C1.26044 16.3374 0.822893 17.1224 1.03564 17.8753C2.13753 21.7724 4.65642 25.3462 8.12867 27.9403C11.629 30.5584 15.876 31.998 20.0828 31.998C24.2897 31.998 28.6129 30.5444 32.1695 27.7957C34.4977 25.9968 36.3964 23.744 37.715 21.2564C38.2891 20.1742 38.7527 19.0479 39.0939 17.8934C39.1742 17.6203 39.1682 17.3433 39.0939 17.0883L39.0879 17.0923Z" fill="#F47721"/>
<path d="M2.50282 5.76645C2.34024 5.68012 2.1596 5.61186 1.96692 5.56367C1.57755 5.46529 0.903172 5.34884 0.748627 4.9252C0.65028 4.65415 0.79479 4.34495 1.03765 4.20642C1.34473 4.03174 1.8184 4.00162 2.13552 4.17228C2.23387 4.22449 2.32218 4.31484 2.43457 4.41924C2.4406 4.42526 2.44862 4.43129 2.45464 4.43731C2.45866 4.44133 2.46067 4.44333 2.46468 4.44534C2.51486 4.48349 2.57908 4.50758 2.64933 4.50758C2.8099 4.50758 2.94036 4.37908 2.93835 4.22649C2.93835 4.15421 2.90624 4.08796 2.86008 4.03977C2.74166 3.91328 2.56303 3.77474 2.40246 3.6864C2.19774 3.57397 1.9027 3.52377 1.65783 3.52377C1.38688 3.52377 1.09585 3.56393 0.905179 3.64223C0.712499 3.72053 0.55394 3.81892 0.429501 3.93737C0.307069 4.05383 0.216751 4.18433 0.158545 4.32688C0.10034 4.46943 0.0722407 4.60195 0.0722407 4.72844C0.0722407 5.00752 0.126432 5.22837 0.236821 5.39301C0.347211 5.55765 0.483692 5.65201 0.648273 5.74838C0.812853 5.84476 0.989476 5.92105 1.18416 5.97727C1.37684 6.03148 1.68794 6.10577 1.85252 6.166C2.05524 6.23828 2.27802 6.30655 2.39443 6.49528C2.50884 6.682 2.47873 6.93498 2.37035 7.11769C2.12548 7.5353 1.5334 7.56542 1.10388 7.45098C0.963384 7.41484 0.84296 7.3546 0.730563 7.26626C0.594082 7.15583 0.485699 6.96509 0.284991 6.9671C0.124425 6.9671 -0.00402832 7.0956 -0.00402832 7.24819C-0.00402832 7.30842 0.0180496 7.36464 0.0521699 7.40881C0.469643 7.95894 1.34674 8.19184 2.01911 7.99107C2.21982 7.93083 2.45464 7.82442 2.61722 7.69392C2.75771 7.58148 2.8681 7.44094 2.9524 7.27429C3.03469 7.10765 3.07684 6.92092 3.07684 6.71613C3.07684 6.45713 3.02064 6.25434 2.91025 6.10577C2.79986 5.95719 2.66338 5.85881 2.50081 5.77248" fill="#1F4183"/>
<path d="M16.448 3.58802C16.2874 3.58802 16.157 3.71853 16.157 3.87915V6.2684C16.157 6.40292 16.1389 6.54145 16.1028 6.684C16.0666 6.82656 16.0044 6.96108 15.9201 7.08154C15.8358 7.20402 15.7234 7.3024 15.5869 7.37869C15.4485 7.45499 15.2779 7.49314 15.0771 7.49314C14.8764 7.49314 14.7058 7.45499 14.5673 7.37869C14.4309 7.3024 14.3185 7.20201 14.2342 7.08154C14.1499 6.96108 14.0877 6.82656 14.0515 6.684C14.0154 6.53944 13.9973 6.40091 13.9973 6.2684V3.87915C13.9973 3.71853 13.8669 3.58802 13.7063 3.58802C13.5457 3.58802 13.4153 3.71853 13.4153 3.87915V6.35875C13.4153 6.60972 13.4574 6.8366 13.5417 7.04139C13.628 7.24618 13.7444 7.42287 13.895 7.57345C14.0455 7.72403 14.2201 7.83847 14.4228 7.91878C14.6256 7.9991 14.8443 8.03925 15.0792 8.03925C15.314 8.03925 15.5328 7.9991 15.7355 7.91878C15.9382 7.83847 16.1148 7.72202 16.2633 7.57345C16.4139 7.42287 16.5303 7.24618 16.6166 7.04139C16.7009 6.8366 16.743 6.60972 16.743 6.35875V3.87915C16.743 3.71853 16.6126 3.58802 16.452 3.58802" fill="#1F4183"/>
<path d="M28.5968 4.57986C28.7293 4.42125 28.8879 4.29677 29.0745 4.20642C29.2612 4.11406 29.4699 4.06989 29.7007 4.06989C29.8894 4.06989 30.064 4.11406 30.2467 4.18835C30.3892 4.24657 30.5397 4.37908 30.636 4.49353C30.6862 4.54974 30.7585 4.58588 30.8367 4.58588C30.9893 4.58588 31.1137 4.45538 31.1137 4.29476C31.1137 4.23452 31.0957 4.17831 31.0656 4.13012C30.9712 3.97954 30.7725 3.79683 30.5116 3.68841C30.2527 3.57798 29.9878 3.52377 29.7168 3.52377C29.4017 3.52377 29.1127 3.57999 28.8517 3.69443C28.5908 3.80687 28.366 3.96749 28.1794 4.17028C27.9927 4.37507 27.8482 4.61801 27.7438 4.8991C27.6435 5.17015 27.5933 5.46529 27.5893 5.78252C27.5933 6.09974 27.6435 6.39489 27.7438 6.66594C27.8482 6.94702 27.9927 7.18997 28.1794 7.39476C28.366 7.59955 28.5908 7.75816 28.8517 7.8706C29.1127 7.98304 29.4017 8.04126 29.7168 8.04126C29.9857 8.04126 30.2507 7.98705 30.5116 7.87662C30.7705 7.7682 30.9692 7.58349 31.0656 7.43491C31.0957 7.38873 31.1137 7.33051 31.1137 7.27028C31.1137 7.10965 30.9893 6.97915 30.8367 6.97915C30.7585 6.97915 30.6862 7.01529 30.636 7.07151C30.5397 7.18394 30.3892 7.31846 30.2467 7.37669C30.064 7.45098 29.8894 7.49515 29.7007 7.49515C29.4699 7.49515 29.2612 7.44897 29.0745 7.35862C28.8879 7.26827 28.7273 7.14379 28.5968 6.98517C28.4644 6.82656 28.362 6.64184 28.2878 6.42902C28.2175 6.22824 28.1834 6.0114 28.1794 5.78252C28.1834 5.55363 28.2175 5.33679 28.2878 5.13601C28.362 4.92319 28.4644 4.73848 28.5968 4.58187" fill="#1F4183"/>
<path d="M4.17872 3.58601C4.01816 3.58601 3.8877 3.71652 3.8877 3.87714V7.63971C3.8877 7.80033 4.01816 7.93083 4.17872 7.93083C4.33929 7.93083 4.46975 7.80033 4.46975 7.63971V3.87714C4.46975 3.71652 4.33929 3.58601 4.17872 3.58601Z" fill="#1F4183"/>
<path d="M8.60637 3.58601C8.44581 3.58601 8.31534 3.71652 8.31534 3.87714V5.4171H6.08749V3.87714C6.08749 3.71652 5.95702 3.58601 5.79646 3.58601C5.63589 3.58601 5.50543 3.71652 5.50543 3.87714V7.63971C5.50543 7.80033 5.63589 7.93083 5.79646 7.93083C5.95702 7.93083 6.08749 7.80033 6.08749 7.63971V5.96322H8.31534V7.63971C8.31534 7.80033 8.44581 7.93083 8.60637 7.93083C8.76694 7.93083 8.89941 7.80033 8.89941 7.63971V3.87714C8.89941 3.71652 8.76894 3.58601 8.60838 3.58601" fill="#1F4183"/>
<path d="M32.5047 7.6377V3.88115C32.5047 3.72053 32.3742 3.59003 32.2136 3.59003C32.0531 3.59003 31.9226 3.72053 31.9226 3.88115V7.6397C31.9226 7.80032 32.0531 7.93083 32.2136 7.93083C32.3742 7.93083 32.5047 7.80032 32.5047 7.6397V7.6377Z" fill="#1F4183"/>
<path d="M25.2451 5.52753H24.0629C23.9264 5.53556 23.818 5.65603 23.818 5.80059C23.818 5.94514 23.9264 6.06561 24.0629 6.07364H24.9681V7.27027C24.8457 7.34255 24.6971 7.39877 24.5205 7.43692C24.3459 7.47507 24.1592 7.49514 23.9646 7.49514C23.7378 7.49514 23.529 7.45097 23.3363 7.36464C23.1437 7.27831 22.9771 7.15784 22.8346 7.00324C22.6921 6.84864 22.5797 6.66794 22.5014 6.45913C22.4211 6.25033 22.381 6.02546 22.381 5.78252C22.381 5.53958 22.4171 5.32675 22.4894 5.11794C22.5636 4.90913 22.666 4.72844 22.8004 4.57384C22.9349 4.42125 23.0975 4.29877 23.2842 4.20641C23.4728 4.11406 23.6836 4.06989 23.9184 4.06989C24.1251 4.06989 24.3238 4.10402 24.5125 4.17027C24.6951 4.23452 24.8798 4.35097 25.0624 4.49754C25.0664 4.50156 25.0705 4.50557 25.0745 4.50758C25.0745 4.50758 25.0765 4.50959 25.0785 4.5116C25.1206 4.5377 25.1708 4.55577 25.225 4.55577C25.3775 4.55577 25.502 4.42526 25.502 4.26464C25.502 4.1763 25.4638 4.09799 25.4056 4.04579C25.2792 3.92934 25.0785 3.77474 24.8396 3.67435C24.6008 3.57397 24.2937 3.52578 23.9164 3.52578C23.6053 3.52578 23.3183 3.58401 23.0574 3.69845C22.7964 3.8149 22.5716 3.97351 22.385 4.17429C22.1983 4.37708 22.0518 4.616 21.9474 4.89106C21.8411 5.16613 21.7889 5.46328 21.7889 5.78452C21.7889 6.10577 21.8391 6.37682 21.9354 6.64987C22.0337 6.92293 22.1742 7.16386 22.3629 7.36866C22.5496 7.57546 22.7784 7.73809 23.0493 7.86056C23.3203 7.98103 23.6294 8.04327 23.9746 8.04327C24.099 8.04327 24.2295 8.03524 24.37 8.01917C24.5105 8.00311 24.649 7.97701 24.7855 7.94288C24.9219 7.90875 25.0544 7.86658 25.1808 7.8184C25.3073 7.77021 25.4217 7.71399 25.52 7.64774V5.81866C25.52 5.65803 25.3956 5.52753 25.2431 5.52753" fill="#1F4183"/>
<path d="M35.8625 3.59003H33.4239C33.2734 3.59003 33.1509 3.7125 33.1509 3.86308C33.1509 4.01367 33.2734 4.13614 33.4239 4.13614C33.4239 4.13614 33.4239 4.13614 33.4259 4.13614H34.3512V7.6397C34.3512 7.80032 34.4816 7.93083 34.6422 7.93083C34.8028 7.93083 34.9332 7.80032 34.9332 7.6397V4.13614H35.8585C35.8585 4.13614 35.8605 4.13614 35.8625 4.13614C36.013 4.13614 36.1355 4.01367 36.1355 3.86308C36.1355 3.7125 36.013 3.59003 35.8625 3.59003Z" fill="#1F4183"/>
<path d="M39.9449 4.06587C39.9449 4.06587 39.9569 4.0478 39.9629 4.03776V4.03375H39.9649C39.991 3.98957 40.0051 3.93737 40.0051 3.88116C40.0051 3.70849 39.8666 3.58802 39.694 3.58802C39.5856 3.58802 39.4913 3.64223 39.4351 3.72656L38.3111 5.5195L37.1871 3.72656C37.1309 3.64424 37.0366 3.58802 36.9282 3.58802C36.7576 3.58802 36.6191 3.70849 36.6191 3.88116C36.6191 3.93737 36.6332 3.98957 36.6593 4.03375V4.03776C36.6593 4.03776 36.6733 4.05583 36.6794 4.06587L38.0221 6.09774V7.6397C38.0221 7.80233 38.1526 7.93284 38.3131 7.93284C38.4737 7.93284 38.6041 7.80233 38.6041 7.64171V6.09974L39.9449 4.06788V4.06587Z" fill="#1F4183"/>
<path d="M12.3074 6.00739C12.3074 6.00739 12.3114 6.00739 12.3134 6.00739C12.4639 6.00739 12.5864 5.88492 12.5864 5.73433C12.5864 5.58375 12.4639 5.46128 12.3134 5.46128H10.3866V4.13816H12.3094C12.3094 4.13816 12.3094 4.13816 12.3114 4.13816C12.4619 4.13816 12.5844 4.01568 12.5844 3.8651C12.5844 3.71452 12.4619 3.59204 12.3114 3.59204H10.0936C9.93301 3.59204 9.80255 3.72255 9.80255 3.88317V7.64172C9.80255 7.80234 9.93301 7.93284 10.0936 7.93284H12.3114C12.4619 7.93284 12.5844 7.81037 12.5844 7.65979C12.5844 7.5092 12.4619 7.38673 12.3114 7.38673H10.3846V6.00739H12.3054H12.3074Z" fill="#1F4183"/>
<path d="M20.7211 3.59003C20.5685 3.59003 20.4461 3.72656 20.4461 3.8932V6.80447L18.146 3.72053C18.0938 3.64022 18.0095 3.59203 17.9212 3.59203C17.7687 3.59203 17.6462 3.72856 17.6462 3.89521V7.62966C17.6462 7.79631 17.7687 7.93284 17.9212 7.93284C18.0737 7.93284 18.1962 7.79631 18.1962 7.62966V4.73646L20.5003 7.80434C20.5525 7.88465 20.6368 7.93485 20.7251 7.93485H20.7211C20.8716 7.93485 20.9961 7.79832 20.9961 7.63167V3.8932C20.9961 3.72656 20.8736 3.59003 20.7211 3.59003Z" fill="#1F4183"/>
<path d="M71.9458 16.1266C71.7311 15.3556 70.9302 14.9038 70.1595 15.1187C63.3856 17.01 57.7979 15.8535 53.5529 11.6773C50.3095 8.48699 49.0591 4.63407 49.047 4.59592C48.8062 3.83297 47.9933 3.40933 47.2306 3.64825C46.4659 3.88718 46.0404 4.70233 46.2813 5.46529C46.3375 5.648 47.7184 9.95868 51.4335 13.659C52.8485 15.0685 54.7191 16.492 57.1055 17.4979C54.9117 18.8953 53.4546 21.3468 53.4546 24.1336C53.4546 28.4703 56.981 31.996 61.3163 31.996C65.6516 31.996 69.1761 28.4683 69.1761 24.1336C69.1761 22.0334 68.3471 20.126 67.0024 18.7146C68.2448 18.56 69.5574 18.299 70.9423 17.9115C71.713 17.6966 72.1646 16.8955 71.9498 16.1246L71.9458 16.1266ZM61.3123 29.0988C58.5767 29.0988 56.3508 26.8722 56.3508 24.1356C56.3508 21.399 58.5767 19.1723 61.3123 19.1723C64.048 19.1723 66.2738 21.399 66.2738 24.1356C66.2738 26.8722 64.048 29.0988 61.3123 29.0988Z" fill="#1F4183"/>
</g>
<path d="M119.927 19.7114C119.865 19.0182 119.47 18.392 118.87 18.0431L116.214 16.4955L118.87 14.948C119.47 14.5991 119.865 13.9774 119.927 13.2796L120.38 8.24329L115.823 6.11873C115.197 5.828 114.464 5.85931 113.86 6.20819L111.204 7.75129V4.66061C111.204 3.96286 110.867 3.30537 110.298 2.90282L106.186 0L102.082 2.91176C101.518 3.31431 101.18 3.97181 101.18 4.66956V7.76023L98.5199 6.21266C97.9158 5.86378 97.183 5.83247 96.5568 6.1232L92 8.25224L92.453 13.2886C92.5152 13.9818 92.9105 14.608 93.5101 14.9569L96.1704 16.5L93.5101 18.0476C92.9105 18.3964 92.5152 19.0182 92.453 19.7159L92 24.7522L96.5568 26.8768C96.841 27.011 97.1475 27.0736 97.4495 27.0736C97.8181 27.0736 98.1868 26.9797 98.5199 26.7873L101.18 25.2398V28.3304C101.18 29.0282 101.518 29.6857 102.086 30.0838L106.19 32.9955L110.294 30.0838C110.862 29.6812 111.2 29.0282 111.2 28.3304V25.2398L113.856 26.7873C114.184 26.9797 114.553 27.0736 114.922 27.0736C115.228 27.0736 115.535 27.0065 115.819 26.8768L120.376 24.7522L119.923 19.7159L119.927 19.7114Z" fill="white"/>
<path d="M105.981 16.1422V11.2713L101.793 13.7045L105.981 16.1422Z" fill="#265AA6"/>
<path d="M101.589 28.3304C101.589 28.894 101.86 29.4218 102.317 29.7483L105.981 32.347V22.4443L101.589 24.9982V28.3304Z" fill="#265AA6"/>
<path d="M105.981 0.653015L102.317 3.25169C101.86 3.5782 101.589 4.11046 101.589 4.67402V13.3512L105.981 10.7972V0.653015Z" fill="#265AA6"/>
<path d="M106.394 11.2713V16.1422L110.583 13.7045L106.394 11.2713Z" fill="#265AA6"/>
<path d="M106.394 32.347L110.058 29.7483C110.516 29.4263 110.787 28.894 110.787 28.3304V24.9982L106.394 22.4443V32.347Z" fill="#8BADDC"/>
<path d="M110.054 3.25169L106.39 0.653015V10.7928L110.782 13.3467V4.66955C110.782 4.10598 110.511 3.57373 110.054 3.24721V3.25169Z" fill="#8BADDC"/>
<path d="M96.73 6.49894L92.6617 8.39986L101.18 13.3512V8.24331L98.3156 6.57945C97.827 6.29766 97.2363 6.27083 96.73 6.50788V6.49894Z" fill="#0091D3"/>
<path d="M119.918 24.2468L119.514 19.7517C119.465 19.1881 119.145 18.6872 118.661 18.4054L111.195 14.0668V19.1747L119.918 24.2468Z" fill="#0091D3"/>
<path d="M110.787 18.9332V14.0624L106.599 16.5L110.787 18.9332Z" fill="#0091D3"/>
<path d="M106.394 21.7287L110.582 19.2955L106.394 16.8578V21.7287Z" fill="#0091D3"/>
<path d="M92.8616 13.2527C92.9105 13.8118 93.2302 14.3173 93.7144 14.599L96.579 16.2629L100.971 13.709L92.4575 8.75763L92.8616 13.2527Z" fill="#73C4EF"/>
<path d="M110.991 19.5325L106.599 22.0864L114.06 26.425C114.544 26.7068 115.139 26.7336 115.646 26.4966L119.714 24.6001L110.991 19.528V19.5325Z" fill="#73C4EF"/>
<path d="M101.589 14.0623V18.9332L105.777 16.5L101.589 14.0623Z" fill="#00B4CD"/>
<path d="M105.981 21.7286V16.8578L101.793 19.2955L105.981 21.7286Z" fill="#00B4CD"/>
<path d="M101.385 19.5325L92.6617 24.6046L96.73 26.5011C97.2363 26.7381 97.8314 26.7113 98.3156 26.4295L105.777 22.0909L101.385 19.537V19.5325Z" fill="#00B4CD"/>
<path d="M111.404 13.7045L115.797 16.2585L118.661 14.5946C119.145 14.3128 119.465 13.8074 119.514 13.2483L119.918 8.75317L111.404 13.7045Z" fill="#00B4CD"/>
<path d="M92.8616 19.7517L92.4575 24.2468L95.3532 22.5606L101.176 19.1747V14.0668L93.7144 18.4054C93.2302 18.6872 92.9105 19.1881 92.8616 19.7517Z" fill="#95D3E6"/>
<path d="M115.646 6.49891C115.139 6.26185 114.549 6.28869 114.06 6.57047L111.195 8.23434V13.3422L119.709 8.39089L115.641 6.49444L115.646 6.49891Z" fill="#95D3E6"/>
<path d="M134.295 25.8525V25.3247H132.638V24.1439H134.144V23.6385H132.638V22.4935H134.219V21.9657H132.021V25.8525H134.295Z" fill="#265AA6"/>
<path d="M141.157 23.6385H139.464V21.9657H138.847V25.8525H139.464V24.1439H141.157V25.8525H141.774V21.9657H141.157V23.6385Z" fill="#265AA6"/>
<path d="M154.214 21.9657H153.597V25.8481H154.214V21.9657Z" fill="#265AA6"/>
<path d="M169.648 21.9657H169.03V25.8481H169.648V21.9657Z" fill="#265AA6"/>
<path d="M204.112 21.9299L202.531 25.8525H203.215L203.619 24.8417H204.921L205.325 25.8525H206.009L204.428 21.9299H204.121H204.112ZM203.819 24.3363L204.144 23.5222L204.259 23.0973H204.272L204.388 23.5222L204.712 24.3363H203.815H203.819Z" fill="#265AA6"/>
<path d="M176.443 21.9657L175.43 23.5356L174.413 21.9657H173.685L175.119 24.0947V25.8525H175.737V24.0947L177.171 21.9657H176.443Z" fill="#265AA6"/>
<path d="M128.397 22.4935H129.516V25.8525H130.133V22.4935H131.248V21.9657H128.397V22.4935Z" fill="#265AA6"/>
<path d="M170.421 22.4935H171.535V25.8525H172.153V22.4935H173.272V21.9657H170.421V22.4935Z" fill="#265AA6"/>
<path d="M161.498 25.8525V25.3247H159.837V24.1439H161.342V23.6385H159.837V22.4935H161.418V21.9657H159.219V25.8525H161.498Z" fill="#265AA6"/>
<path d="M202.14 25.8525V25.3247H200.484V24.1439H201.985V23.6385H200.484V22.4935H202.065V21.9657H199.867V25.8525H202.14Z" fill="#265AA6"/>
<path d="M183.847 21.9657V25.8525H184.464V24.1439H185.965V23.6385H184.464V22.4935H186.045V21.9657H183.847Z" fill="#265AA6"/>
<path d="M135.489 23.9069C135.489 23.0839 136.111 22.4711 136.96 22.4711C137.302 22.4711 137.581 22.5516 137.857 22.7216L137.981 22.1536C137.599 21.9657 137.288 21.8897 136.875 21.8897C135.752 21.8897 134.872 22.7753 134.872 23.9069C134.872 25.0385 135.752 25.9241 136.875 25.9241C137.239 25.9241 137.488 25.8883 137.852 25.7452L137.994 25.0251C137.697 25.2263 137.328 25.3471 136.955 25.3471C136.111 25.3471 135.485 24.7343 135.485 23.9114L135.489 23.9069Z" fill="#265AA6"/>
<path d="M147.237 24.4212C147.237 24.9446 146.842 25.3337 146.313 25.3337C145.784 25.3337 145.389 24.9446 145.389 24.4212V21.9702H144.772V24.4839C144.772 25.2979 145.447 25.933 146.313 25.933C147.179 25.933 147.854 25.2979 147.854 24.4839V21.9702H147.237V24.4212Z" fill="#265AA6"/>
<path d="M196.362 21.9657V25.8481H196.98V24.1395H197.388L198.525 25.8481H199.254L198.05 24.0992C198.499 23.965 198.827 23.5491 198.827 23.0526C198.827 22.4488 198.343 21.9612 197.744 21.9612H196.358L196.362 21.9657ZM196.98 22.489H197.65C197.966 22.489 198.223 22.7484 198.223 23.066C198.223 23.3836 197.966 23.643 197.65 23.643H196.98V22.489Z" fill="#265AA6"/>
<path d="M162.426 21.9657V25.8481H163.043V24.1395H163.452L164.589 25.8481H165.317L164.114 24.0992C164.562 23.965 164.891 23.5491 164.891 23.0526C164.891 22.4488 164.407 21.9612 163.807 21.9612H162.422L162.426 21.9657ZM163.043 22.489H163.714C164.029 22.489 164.287 22.7484 164.287 23.066C164.287 23.3836 164.029 23.643 163.714 23.643H163.043V22.489Z" fill="#265AA6"/>
<path d="M191.202 21.9657H190.46L188.999 23.643V21.9657H188.381V25.8525H188.999V24.1395L190.433 25.8525H191.259L189.54 23.8756L191.202 21.9657Z" fill="#265AA6"/>
<path d="M151.745 24.1439L151.754 24.6762L151.745 24.6807L151.518 24.3899L149.453 21.9657H149.009V25.8525H149.626V23.5983L149.617 23.0615H149.626L149.853 23.3478L152.073 25.8883H152.362V21.9657H151.745V24.1439Z" fill="#265AA6"/>
<path d="M180.915 21.8897C179.809 21.8897 178.912 22.7932 178.912 23.9069C178.912 25.0206 179.809 25.9241 180.915 25.9241C182.021 25.9241 182.918 25.0206 182.918 23.9069C182.918 22.7932 182.021 21.8897 180.915 21.8897ZM180.915 25.3561C180.147 25.3561 179.525 24.7075 179.525 23.9114C179.525 23.1152 180.147 22.4666 180.915 22.4666C181.684 22.4666 182.305 23.1152 182.305 23.9114C182.305 24.7075 181.684 25.3561 180.915 25.3561Z" fill="#265AA6"/>
<path d="M193.431 21.8897C192.325 21.8897 191.428 22.7932 191.428 23.9069C191.428 25.0206 192.325 25.9241 193.431 25.9241C194.537 25.9241 195.434 25.0206 195.434 23.9069C195.434 22.7932 194.537 21.8897 193.431 21.8897ZM193.431 25.3561C192.663 25.3561 192.041 24.7075 192.041 23.9114C192.041 23.1152 192.663 22.4666 193.431 22.4666C194.199 22.4666 194.821 23.1152 194.821 23.9114C194.821 24.7075 194.199 25.3561 193.431 25.3561Z" fill="#265AA6"/>
<path d="M167.374 23.6519C167.298 23.6162 167.125 23.5356 166.859 23.4417C166.592 23.3478 166.432 23.1241 166.432 22.896C166.432 22.6992 166.583 22.4488 167.032 22.4488C167.48 22.4488 167.756 22.6679 167.756 22.6679L167.871 22.1133C167.871 22.1133 167.547 21.8852 167.023 21.8852C166.352 21.8852 165.828 22.2475 165.828 22.9363C165.828 23.2047 165.939 23.5267 166.183 23.7235C166.321 23.8353 166.388 23.8711 166.534 23.9427C166.668 24.0098 166.792 24.059 166.974 24.126C167.276 24.2334 167.476 24.3765 167.476 24.8148C167.476 25.1995 167.054 25.3695 166.756 25.3695C166.241 25.3695 165.753 24.9938 165.753 24.9938L165.855 25.696C166.192 25.8794 166.472 25.9241 166.783 25.9241C167.956 25.9241 168.093 25.0966 168.093 24.7433C168.093 23.9516 167.489 23.6967 167.374 23.6475V23.6519Z" fill="#265AA6"/>
<path d="M156.874 25.8883L158.456 21.9657H157.772L156.843 24.296L156.728 24.7254H156.71L156.595 24.296L155.666 21.9657H154.982L156.564 25.8883H156.874Z" fill="#265AA6"/>
<path d="M205.325 16.7952V9.31225C205.325 8.86498 204.965 8.50269 204.521 8.50269H197.775V9.94739H203.753V16.7907H202.625V12.716H201.079V16.7907H199.924V12.716H198.379V16.7907H196.869V18.2354H205.996V16.7907H205.32L205.325 16.7952Z" fill="#265AA6"/>
<path d="M181.915 11.5263H180.893V8.10014H179.348V14.7601H175.737V9.68349H178.033V8.23879H174.196V15.3997C174.196 15.847 174.555 16.2092 175 16.2092H179.352V19.3089H180.094C180.538 19.3089 180.898 18.9466 180.898 18.4993V13.0023H181.919V19.3089H182.661C183.105 19.3089 183.465 18.9466 183.465 18.4993V8.10461H181.919V11.5307L181.915 11.5263Z" fill="#265AA6"/>
<path d="M170.372 14.7601H163.15V16.2048H169.612V19.3044H170.381C170.825 19.3044 171.184 18.9421 171.184 18.4948C171.184 17.5287 171.184 16.5313 171.18 15.5652C171.18 15.1179 170.82 14.7601 170.376 14.7601H170.372Z" fill="#265AA6"/>
<path d="M171.184 8.10014H169.612V14.1652H170.381C170.825 14.1652 171.184 13.8029 171.184 13.3556V11.6381H172.526V10.1665H171.184V8.10014Z" fill="#265AA6"/>
<path d="M159.832 9.04389C159.832 8.59661 159.473 8.23432 159.028 8.23432H151.62V9.67902H158.26V12.0362H155.484V10.4036H153.885V12.0362H150.945V13.4809H160.503V12.0362H159.828V9.03942L159.832 9.04389Z" fill="#265AA6"/>
<path d="M148.387 9.04389C148.387 8.59661 148.027 8.23432 147.583 8.23432H140.175V9.67902H146.815V11.9557H139.5V13.4004H143.195V15.1626H140.117V16.6073H146.864V19.2999H147.632C148.076 19.2999 148.436 18.9376 148.436 18.4904V15.9677C148.436 15.5204 148.076 15.1581 147.632 15.1581H144.79V13.3959H149.053V11.9512H148.378V9.03495L148.387 9.04389Z" fill="#265AA6"/>
<path d="M136.813 8.10014H135.241V15.9319H136.009C136.453 15.9319 136.813 15.5696 136.813 15.1224V11.7454H138.154V10.2739H136.813V8.10014Z" fill="#265AA6"/>
<path d="M130.457 14.8943H128.885V18.3875C128.885 18.8348 129.245 19.197 129.689 19.197H136.911V17.7523H130.457V14.8987V14.8943Z" fill="#265AA6"/>
<path d="M165.291 13.9237C166.805 13.9237 168.031 12.725 168.031 11.2445C168.031 10.6586 167.84 10.2202 167.516 9.90266H168.422V8.49821H166.099V7.54999H164.474V8.49821H162.151V9.90266H163.057C162.733 10.2202 162.542 10.6586 162.542 11.2445C162.542 12.725 163.767 13.9237 165.282 13.9237H165.291ZM165.291 9.9116C165.975 9.9116 166.53 10.5065 166.53 11.2445C166.53 11.9825 165.975 12.5774 165.291 12.5774C164.607 12.5774 164.052 11.9825 164.052 11.2445C164.052 10.5065 164.607 9.9116 165.291 9.9116Z" fill="#265AA6"/>
<path d="M193.706 14.7601H186.485V16.2048H192.947V19.3044H193.715C194.159 19.3044 194.519 18.9421 194.519 18.4948C194.519 17.5287 194.519 16.5313 194.515 15.5652C194.515 15.1179 194.155 14.7601 193.711 14.7601H193.706Z" fill="#265AA6"/>
<path d="M194.519 8.10014H192.947V14.1652H193.715C194.159 14.1652 194.519 13.8029 194.519 13.3556V11.6381H195.86V10.1665H194.519V8.10014Z" fill="#265AA6"/>
<path d="M188.626 13.9237C190.14 13.9237 191.366 12.725 191.366 11.2445C191.366 10.6586 191.175 10.2202 190.851 9.90266H191.757V8.49821H189.434V7.54999H187.808V8.49821H185.486V9.90266H186.392C186.067 10.2202 185.876 10.6586 185.876 11.2445C185.876 12.725 187.102 13.9237 188.617 13.9237H188.626ZM188.626 9.9116C189.309 9.9116 189.865 10.5065 189.865 11.2445C189.865 11.9825 189.309 12.5774 188.626 12.5774C187.942 12.5774 187.386 11.9825 187.386 11.2445C187.386 10.5065 187.942 9.9116 188.626 9.9116Z" fill="#265AA6"/>
<path d="M130.919 13.9237C132.434 13.9237 133.66 12.725 133.66 11.2445C133.66 10.6586 133.469 10.2202 133.144 9.90266H134.05V8.49821H131.728V7.54999H130.102V8.49821H127.779V9.90266H128.685C128.361 10.2202 128.17 10.6586 128.17 11.2445C128.17 12.725 129.396 13.9237 130.91 13.9237H130.919ZM130.919 9.9116C131.603 9.9116 132.158 10.5065 132.158 11.2445C132.158 11.9825 131.603 12.5774 130.919 12.5774C130.235 12.5774 129.68 11.9825 129.68 11.2445C129.68 10.5065 130.235 9.9116 130.919 9.9116Z" fill="#265AA6"/>
<path d="M155.809 13.8879C154.076 13.8879 152.673 15.2297 152.673 16.8802C152.673 18.5306 154.076 19.8724 155.809 19.8724C157.541 19.8724 158.944 18.5306 158.944 16.8802C158.944 15.2297 157.541 13.8879 155.809 13.8879ZM155.809 18.5172C154.925 18.5172 154.21 17.7837 154.21 16.8802C154.21 15.9767 154.925 15.2431 155.809 15.2431C156.692 15.2431 157.407 15.9767 157.407 16.8802C157.407 17.7837 156.692 18.5172 155.809 18.5172Z" fill="#265AA6"/>
<defs>
<clipPath id="clip0_4_316">
<rect width="72" height="31" fill="white" transform="translate(0 1)"/>
</clipPath>
</defs>
</svg>
